# xmcd
#
# Track frame offsets:
#	150
#	19485
#	36201
#	52236
#	70149
#	89609
#	104741
#	124490
#	143084
#	163365
#	180715
#	198427
#	216497
#	233752
#	261192
#	287855
#	310381
#	330468
#
# Disc length: 4675 seconds
#
# Revision: 0
# Processed by: cddbd v1.5.2PL0 Copyright (c) Steve Scherf et al.
# Submitted via: EasyCDDAExtractor 12.0.0.1
#
DISCID=29124112
DTITLE=Various Artist - DIAMONDS Best Collections - Love Songs Are Forever
DYEAR=2008
DGENRE=Pop
TTITLE0=Maroon 5 - She Will Be Loved
TTITLE1=Babyface - Wonderful Tonight
TTITLE2=James Morrison - You Give Me Something
TTITLE3=Vanessa Carlton - A Thousand Miles
TTITLE4=Daniel Bedingfield - If You're Not The One
TTITLE5=Take That - Patience
TTITLE6=Sting - Englishman In New York
TTITLE7=Phil Collins and Marilyn Martin - Separate Lives
TTITLE8=Toni Braxton - Un-break My Heart
TTITLE9=Diana Ross - Touch Me In The Morning
TTITLE10=Chicago - If You Leave Me Now
TTITLE11=Patrizio Buanne - Un Angelo (Angels)
TTITLE12=Elton John - Candle In The Wind
TTITLE13=Meat Loaf feat. Marion Raven - It's All Coming Back To Me Now
TTITLE14=Bryan Adams - Please Forgive Me
TTITLE15=Foreigner - I Want To Know What Love Is
TTITLE16=Don Henley and Patty Smyth - Sometimes Love Just Ain't Enough
TTITLE17=The Cranberries - Dreams
EXTD=
EXTT0=
EXTT1=
EXTT2=
EXTT3=
EXTT4=
EXTT5=
EXTT6=
EXTT7=
EXTT8=
EXTT9=
EXTT10=
EXTT11=
EXTT12=
EXTT13=
EXTT14=
EXTT15=
EXTT16=
EXTT17=
PLAYORDER=
